<svg width="1000" height="1000" viewBox="0 0 1000 1000" fill="none" xmlns="http://www.w3.org/2000/svg">
<path d="M15.0039 99.8535L15.0029 99.7744C14.8973 89.7609 17.8167 79.9484 23.3799 71.6221C28.943 63.2958 36.8909 56.8436 46.1816 53.1094L46.3281 53.0508L46.4736 52.9883C55.6834 49.0589 65.8651 48.0015 75.6855 49.9551C85.5059 51.9087 94.5076 56.7825 101.513 63.9375L101.568 63.9941L101.624 64.0498L467.645 430.091C476.226 438.673 487.865 443.494 500.002 443.494C512.138 443.494 523.778 438.673 532.359 430.091L532.44 430.01L532.439 430.009L876.369 90.5732L985 199.21V900.255C984.98 913.707 979.628 926.604 970.116 936.116C960.6 945.632 947.698 950.985 934.241 951H65.7617C52.3048 950.985 39.4034 945.632 29.8877 936.115C20.5206 926.748 15.1867 914.099 15.0078 900.868L15.0039 900.237V99.8535Z" fill="#600060" stroke="white" stroke-width="30"/>
</svg>
