<svg width="1000" height="1000" viewBox="0 0 1000 1000" fill="none" xmlns="http://www.w3.org/2000/svg">
<g clip-path="url(#clip0_1166_4401)">
<g filter="url(#filter0_i_1166_4401)">
<path d="M1.73238e-05 1000L1000 0L1000 1000L1.73238e-05 1000Z" fill="#880088"/>
</g>
<g clip-path="url(#clip1_1166_4401)">
<path d="M879.553 827.038H609.445C604.024 827.031 598.827 824.874 594.994 821.038C591.161 817.202 589.005 812.002 588.999 806.577V557.513C588.956 553.457 590.138 549.482 592.39 546.109C594.642 542.736 597.86 540.122 601.621 538.61C605.349 537.018 609.471 536.59 613.446 537.381C617.422 538.173 621.066 540.147 623.902 543.045L737.735 656.959C739.529 658.754 741.962 659.763 744.499 659.763C747.036 659.763 749.47 658.754 751.264 656.959L751.289 656.934L861.572 548.02L899.999 586.475V806.577C899.993 812.002 897.837 817.202 894.004 821.038C890.171 824.874 884.974 827.032 879.553 827.038V827.038ZM609.556 547.896C608.26 547.902 606.978 548.165 605.784 548.668C604.015 549.362 602.5 550.582 601.445 552.163C600.389 553.744 599.842 555.611 599.879 557.513V806.577C599.881 809.115 600.89 811.549 602.684 813.343C604.477 815.138 606.909 816.148 609.445 816.15H879.553C882.09 816.148 884.521 815.138 886.315 813.343C888.108 811.549 889.117 809.115 889.12 806.577V590.985L861.521 563.366L758.941 664.673C755.102 668.498 749.905 670.643 744.488 670.64C739.071 670.637 733.877 668.486 730.042 664.657L616.209 550.743C615.345 549.849 614.312 549.137 613.169 548.648C612.027 548.159 610.798 547.903 609.556 547.896V547.896Z" fill="white"/>
<path d="M642.947 685.8C641.173 688.627 640.287 693.034 640.288 699.022V703.179C640.288 703.621 640.463 704.044 640.774 704.355C641.086 704.667 641.509 704.842 641.949 704.842H653.749C654.19 704.842 654.613 705.018 654.924 705.33C655.236 705.641 655.411 706.064 655.411 706.505V711.994C655.411 712.435 655.236 712.858 654.924 713.17C654.613 713.482 654.19 713.657 653.749 713.657H641.949C641.509 713.657 641.086 713.832 640.774 714.144C640.463 714.456 640.288 714.879 640.288 715.32V787.333C640.288 787.551 640.245 787.767 640.161 787.969C640.078 788.171 639.955 788.354 639.801 788.509C639.646 788.663 639.463 788.785 639.262 788.869C639.06 788.953 638.844 788.996 638.626 788.996H630.316C629.875 788.996 629.453 788.82 629.141 788.509C628.829 788.197 628.654 787.774 628.654 787.333V715.32C628.654 714.879 628.479 714.456 628.167 714.144C627.856 713.832 627.433 713.657 626.992 713.657H621.341C620.901 713.657 620.478 713.482 620.166 713.17C619.855 712.858 619.68 712.435 619.68 711.994V706.505C619.68 706.064 619.855 705.641 620.166 705.33C620.478 705.018 620.901 704.842 621.341 704.842H626.992C627.433 704.842 627.856 704.667 628.167 704.355C628.479 704.044 628.654 703.621 628.654 703.179V698.856C628.654 689.209 630.427 682.224 633.972 677.9C637.517 673.576 643.444 671.414 651.755 671.414H654.081C655.188 671.414 655.742 671.968 655.743 673.077L655.577 679.896V679.913C655.576 680.35 655.401 680.769 655.092 681.078C654.782 681.386 654.363 681.559 653.926 681.559H651.921C647.709 681.559 644.718 682.973 642.947 685.8Z" fill="white"/>
<path d="M716.513 751.409H680.047C679.549 751.409 679.072 751.607 678.72 751.959C678.368 752.311 678.171 752.788 678.171 753.286V764.215C678.171 768.872 679.473 772.669 682.076 775.607C684.678 778.546 688.085 780.015 692.297 780.015C695.842 780.015 698.861 778.934 701.354 776.772C703.863 774.584 705.585 771.634 706.257 768.373C706.59 767.375 707.199 766.876 708.085 766.876L716.395 767.209C716.613 767.208 716.828 767.252 717.028 767.338C717.228 767.424 717.408 767.549 717.558 767.708C717.724 767.881 717.842 768.096 717.9 768.329C717.958 768.562 717.955 768.806 717.891 769.038C717.003 775.581 714.316 780.765 709.83 784.588C705.343 788.413 699.499 790.326 692.297 790.326C684.429 790.326 678.141 787.997 673.434 783.341C668.724 778.684 666.369 772.531 666.371 764.881V728.957C666.371 721.419 668.725 715.293 673.434 710.58C678.142 705.869 684.43 703.513 692.297 703.512C700.274 703.512 706.617 705.868 711.326 710.58C716.034 715.294 718.388 721.42 718.389 728.957V749.532C718.389 750.03 718.192 750.507 717.84 750.859C717.488 751.211 717.011 751.409 716.513 751.409V751.409ZM682.076 718.23C679.472 721.169 678.17 725.022 678.171 729.789V739.72C678.171 740.218 678.368 740.695 678.72 741.047C679.072 741.399 679.549 741.597 680.047 741.597H704.88C705.377 741.597 705.855 741.399 706.206 741.047C706.558 740.695 706.756 740.218 706.756 739.72V729.789C706.756 725.023 705.426 721.17 702.767 718.23C700.108 715.294 696.618 713.825 692.297 713.823C688.085 713.823 684.678 715.292 682.076 718.23Z" fill="white"/>
<path d="M770.376 705.839C771.15 706.284 771.427 707.004 771.207 708.001L769.379 716.483C769.271 717.445 768.598 717.789 767.359 717.514C767.266 717.493 767.175 717.463 767.086 717.427C765.697 716.892 764.219 716.628 762.731 716.649C761.925 716.633 761.119 716.683 760.321 716.8C760.265 716.81 760.208 716.817 760.15 716.821C756.201 717.07 752.962 719.147 750.433 723.052C747.883 726.989 746.608 731.784 746.61 737.438V787.117C746.61 787.615 746.413 788.093 746.061 788.445C745.709 788.797 745.232 788.994 744.734 788.994H736.686C736.189 788.994 735.712 788.797 735.36 788.445C735.008 788.093 734.811 787.615 734.811 787.117V706.718C734.811 706.221 735.008 705.743 735.36 705.391C735.712 705.039 736.189 704.841 736.686 704.841H744.734C745.232 704.841 745.709 705.039 746.061 705.391C746.413 705.743 746.61 706.221 746.61 706.718V716.483C746.61 716.816 746.693 716.982 746.859 716.982C747.089 716.95 747.297 716.831 747.441 716.649C750.653 708.225 755.916 704.012 763.229 704.01C765.998 704.01 768.38 704.62 770.376 705.839Z" fill="white"/>
<path d="M825.204 711.079C829.801 716.125 832.1 722.861 832.101 731.286V787.118C832.101 787.616 831.904 788.094 831.552 788.446C831.2 788.798 830.723 788.995 830.226 788.995H822.178C821.68 788.995 821.203 788.798 820.851 788.446C820.499 788.094 820.302 787.616 820.302 787.118V782.509C820.314 782.422 820.296 782.333 820.25 782.257C820.205 782.182 820.135 782.124 820.053 782.093C819.886 782.039 819.692 782.122 819.471 782.343C815.371 787.665 809.277 790.326 801.19 790.326C795.095 790.326 789.805 788.58 785.319 785.087C780.831 781.595 778.588 775.414 778.588 766.544C778.588 757.121 781.302 750.219 786.731 745.838C792.159 741.459 799.305 739.269 808.17 739.269H818.426C818.924 739.269 819.401 739.071 819.752 738.719C820.104 738.367 820.302 737.889 820.302 737.391V732.117C820.302 726.574 819.055 722.139 816.563 718.813C814.07 715.486 810.663 713.823 806.342 713.823C803.14 713.776 800.044 714.968 797.7 717.149C795.277 719.337 793.789 722.375 793.545 725.631C793.433 726.741 792.824 727.295 791.717 727.294L782.576 727.128C782.344 727.145 782.111 727.11 781.895 727.023C781.679 726.937 781.486 726.802 781.33 726.629C781.194 726.471 781.101 726.282 781.057 726.079C781.013 725.875 781.022 725.664 781.081 725.465C781.634 718.924 784.293 713.63 789.058 709.582C793.82 705.536 799.692 703.512 806.674 703.512C814.428 703.512 820.605 706.034 825.204 711.079ZM815.399 775.607C818.666 772.671 820.3 768.596 820.302 763.383V750.625C820.302 750.127 820.104 749.65 819.752 749.298C819.401 748.946 818.924 748.748 818.426 748.748H808.004C802.685 748.748 798.475 750.162 795.373 752.989C792.27 755.816 790.719 760.002 790.72 765.546C790.72 770.426 791.911 774.057 794.293 776.439C796.674 778.825 799.804 780.016 803.683 780.015C808.007 780.097 812.2 778.52 815.399 775.607V775.607Z" fill="white"/>
<path d="M850.045 672.578V787.118C850.045 787.616 850.243 788.093 850.594 788.445C850.946 788.798 851.423 788.995 851.921 788.995H859.969C860.466 788.995 860.943 788.798 861.295 788.445C861.647 788.093 861.845 787.616 861.845 787.118V684.386L850.045 672.578Z" fill="white"/>
<path d="M631.404 897.182C628.829 894.636 627.542 891.272 627.543 887.09V867.454C627.543 863.333 628.845 859.984 631.449 857.408C634.053 854.832 637.475 853.544 641.715 853.544C644.332 853.491 646.922 854.085 649.255 855.272C651.32 856.318 653.062 857.904 654.297 859.862C655.474 861.758 656.089 863.949 656.069 866.181V867.09C656.086 867.213 656.075 867.339 656.035 867.458C655.996 867.576 655.93 867.683 655.842 867.772C655.753 867.86 655.646 867.926 655.528 867.966C655.409 868.005 655.284 868.017 655.16 867.999L650.527 868.181C650.295 868.185 650.069 868.104 649.891 867.954C649.803 867.883 649.733 867.793 649.686 867.69C649.638 867.588 649.615 867.476 649.619 867.363V866.636C649.624 865.658 649.429 864.69 649.046 863.791C648.663 862.892 648.101 862.081 647.393 861.408C646.648 860.669 645.76 860.09 644.784 859.707C643.807 859.324 642.763 859.145 641.715 859.181C640.664 859.144 639.617 859.341 638.651 859.757C637.685 860.174 636.823 860.8 636.128 861.59C634.704 863.196 633.993 865.303 633.993 867.908V886.636C633.993 889.242 634.705 891.349 636.128 892.954C636.823 893.745 637.685 894.371 638.651 894.787C639.617 895.204 640.664 895.401 641.715 895.363C642.763 895.399 643.808 895.22 644.784 894.837C645.761 894.454 646.648 893.875 647.393 893.136C648.101 892.463 648.663 891.652 649.046 890.753C649.429 889.854 649.624 888.886 649.619 887.909V887.272C649.601 887.149 649.612 887.023 649.652 886.905C649.691 886.786 649.758 886.679 649.846 886.591C649.934 886.502 650.041 886.436 650.16 886.396C650.278 886.357 650.404 886.345 650.527 886.363L655.16 886.454C655.284 886.437 655.409 886.448 655.528 886.488C655.646 886.527 655.753 886.594 655.841 886.682C655.929 886.77 655.996 886.878 656.035 886.996C656.075 887.114 656.086 887.24 656.069 887.363V888.363C656.109 890.068 655.776 891.761 655.093 893.324C654.411 894.886 653.395 896.281 652.117 897.409C649.482 899.804 646.015 901.001 641.715 901C637.414 901 633.977 899.727 631.404 897.182Z" fill="white"/>
<path d="M682.75 854.818C682.953 854.929 683.11 855.109 683.193 855.325C683.276 855.542 683.28 855.78 683.204 855.999L682.205 860.636C682.144 861.181 681.75 861.363 681.024 861.181C680.245 860.868 679.411 860.714 678.571 860.727C678.115 860.716 677.659 860.746 677.208 860.817C675.028 860.939 673.242 862.076 671.849 864.227C670.455 866.379 669.758 869 669.759 872.091V899.364C669.777 899.487 669.765 899.613 669.726 899.732C669.687 899.85 669.62 899.957 669.532 900.046C669.444 900.134 669.336 900.2 669.218 900.24C669.1 900.279 668.974 900.291 668.851 900.273H664.217C664.094 900.291 663.968 900.279 663.85 900.24C663.732 900.201 663.624 900.134 663.536 900.046C663.448 899.958 663.381 899.85 663.342 899.732C663.302 899.613 663.291 899.487 663.309 899.364V855.181C663.291 855.058 663.303 854.932 663.342 854.813C663.382 854.695 663.448 854.588 663.536 854.499C663.624 854.411 663.732 854.345 663.85 854.305C663.968 854.266 664.094 854.254 664.217 854.272H668.851C668.974 854.254 669.1 854.266 669.218 854.305C669.336 854.345 669.444 854.411 669.532 854.5C669.62 854.588 669.686 854.695 669.726 854.814C669.765 854.932 669.777 855.058 669.759 855.181V860.636C669.759 860.817 669.805 860.908 669.895 860.908C670.021 860.891 670.134 860.826 670.213 860.727C671.969 856.121 674.846 853.818 678.844 853.817C680.214 853.78 681.567 854.126 682.75 854.818Z" fill="white"/>
<path d="M715.509 879.727H694.796C694.746 879.72 694.696 879.725 694.649 879.741C694.602 879.756 694.559 879.783 694.523 879.818C694.488 879.853 694.462 879.896 694.446 879.944C694.43 879.991 694.425 880.041 694.432 880.091V886.727C694.432 889.273 695.144 891.349 696.567 892.955C697.262 893.745 698.124 894.371 699.09 894.788C700.056 895.204 701.103 895.401 702.154 895.364C703.967 895.409 705.732 894.777 707.105 893.591C708.476 892.395 709.418 890.783 709.785 889.001C709.832 888.769 709.956 888.562 710.139 888.412C710.321 888.263 710.549 888.182 710.785 888.182L715.327 888.364C715.446 888.364 715.564 888.388 715.673 888.434C715.782 888.481 715.881 888.55 715.963 888.636C716.054 888.732 716.118 888.849 716.15 888.976C716.182 889.104 716.18 889.237 716.145 889.364C715.659 892.941 714.191 895.774 711.739 897.864C709.286 899.955 706.091 901.001 702.154 901.001C697.853 901.001 694.416 899.728 691.843 897.182C689.268 894.637 687.981 891.273 687.982 887.091V867.455C687.982 863.333 689.269 859.985 691.843 857.409C694.417 854.833 697.854 853.545 702.154 853.545C706.515 853.545 709.982 854.833 712.556 857.409C715.13 859.985 716.417 863.334 716.417 867.455V878.818C716.435 878.942 716.423 879.068 716.384 879.186C716.344 879.304 716.278 879.412 716.19 879.5C716.102 879.588 715.994 879.655 715.876 879.694C715.758 879.733 715.632 879.745 715.509 879.727V879.727ZM696.567 861.591C695.144 863.197 694.432 865.303 694.433 867.909V874C694.425 874.049 694.43 874.1 694.446 874.147C694.461 874.195 694.488 874.238 694.523 874.273C694.558 874.308 694.601 874.335 694.649 874.35C694.696 874.366 694.746 874.371 694.796 874.364H709.695C709.744 874.371 709.794 874.366 709.842 874.35C709.889 874.334 709.932 874.308 709.967 874.273C710.002 874.237 710.029 874.194 710.045 874.147C710.06 874.1 710.065 874.049 710.058 874V867.909C710.058 865.304 709.331 863.197 707.878 861.591C706.424 859.985 704.516 859.182 702.154 859.182C701.103 859.145 700.057 859.341 699.09 859.758C698.124 860.175 697.263 860.8 696.567 861.591H696.567Z" fill="white"/>
<path d="M748.34 857.681C750.852 860.44 752.109 864.122 752.11 868.727V899.364C752.128 899.488 752.116 899.614 752.077 899.732C752.037 899.85 751.971 899.958 751.883 900.046C751.795 900.134 751.687 900.201 751.569 900.24C751.451 900.28 751.325 900.291 751.201 900.273H746.568C746.445 900.291 746.319 900.28 746.201 900.24C746.082 900.201 745.975 900.134 745.887 900.046C745.799 899.958 745.732 899.85 745.693 899.732C745.653 899.614 745.642 899.488 745.66 899.364V896.728C745.667 896.68 745.657 896.631 745.632 896.59C745.607 896.549 745.569 896.517 745.523 896.5C745.433 896.471 745.326 896.516 745.206 896.637C742.964 899.546 739.633 901.001 735.213 901.001C732.079 901.066 729.017 900.056 726.537 898.137C724.084 896.228 722.857 892.849 722.857 888C722.857 882.85 724.341 879.077 727.309 876.682C730.276 874.288 734.182 873.092 739.028 873.091H745.296C745.346 873.098 745.396 873.093 745.443 873.077C745.491 873.062 745.534 873.035 745.569 873C745.604 872.965 745.631 872.922 745.647 872.874C745.662 872.827 745.667 872.777 745.66 872.727V869.182C745.66 866.152 744.978 863.728 743.616 861.909C742.98 861.03 742.137 860.322 741.163 859.847C740.189 859.371 739.112 859.143 738.029 859.182C736.279 859.156 734.586 859.807 733.305 861C731.98 862.196 731.167 863.856 731.034 865.636C731.036 865.764 731.01 865.891 730.96 866.008C730.909 866.126 730.834 866.231 730.739 866.317C730.645 866.403 730.533 866.468 730.411 866.507C730.29 866.547 730.161 866.56 730.034 866.545L725.038 866.454C724.911 866.464 724.784 866.444 724.665 866.397C724.547 866.35 724.442 866.276 724.356 866.182C724.282 866.095 724.231 865.992 724.207 865.881C724.183 865.769 724.188 865.654 724.22 865.545C724.522 861.97 725.976 859.076 728.581 856.863C731.184 854.652 734.394 853.545 738.21 853.545C742.449 853.545 745.825 854.924 748.34 857.681ZM742.98 892.955C744.766 891.35 745.659 889.122 745.66 886.273V878.636C745.667 878.587 745.662 878.537 745.646 878.489C745.63 878.442 745.604 878.399 745.569 878.364C745.533 878.329 745.491 878.302 745.443 878.286C745.396 878.271 745.346 878.266 745.296 878.273H738.937C736.03 878.273 733.729 879.045 732.033 880.591C730.337 882.137 729.489 884.425 729.489 887.454C729.489 890.122 730.14 892.107 731.442 893.41C732.744 894.714 734.455 895.365 736.575 895.364C738.939 895.409 741.231 894.547 742.98 892.955V892.955Z" fill="white"/>
<path d="M775.757 859.09H768.852C768.803 859.083 768.753 859.088 768.705 859.103C768.658 859.119 768.615 859.146 768.58 859.181C768.545 859.216 768.518 859.259 768.502 859.307C768.486 859.354 768.482 859.404 768.489 859.454V887.272C768.489 890.061 768.973 891.985 769.942 893.045C770.911 894.106 772.394 894.606 774.394 894.545H775.302C775.426 894.528 775.551 894.539 775.67 894.579C775.788 894.618 775.895 894.685 775.983 894.773C776.071 894.861 776.138 894.968 776.177 895.087C776.217 895.205 776.228 895.331 776.211 895.454V899.363C776.228 899.487 776.217 899.613 776.178 899.731C776.138 899.85 776.072 899.957 775.984 900.045C775.896 900.134 775.788 900.2 775.67 900.24C775.552 900.279 775.426 900.29 775.302 900.273H773.031C769.457 900.273 766.747 899.5 764.9 897.954C763.052 896.409 762.129 893.485 762.13 889.181V859.454C762.137 859.404 762.132 859.354 762.116 859.307C762.1 859.259 762.074 859.216 762.038 859.181C762.003 859.146 761.96 859.119 761.913 859.104C761.866 859.088 761.816 859.083 761.766 859.09H758.223C758.1 859.108 757.974 859.096 757.856 859.057C757.737 859.018 757.63 858.951 757.542 858.863C757.454 858.775 757.387 858.667 757.348 858.549C757.308 858.43 757.297 858.304 757.315 858.181V855.181C757.297 855.057 757.309 854.931 757.348 854.813C757.387 854.695 757.454 854.587 757.542 854.499C757.63 854.411 757.738 854.344 757.856 854.305C757.974 854.265 758.1 854.254 758.223 854.272H761.766C761.816 854.279 761.866 854.274 761.913 854.258C761.96 854.243 762.003 854.216 762.039 854.181C762.074 854.145 762.101 854.102 762.116 854.055C762.132 854.008 762.137 853.957 762.13 853.908V843.726C762.112 843.602 762.123 843.477 762.163 843.358C762.202 843.24 762.269 843.132 762.357 843.044C762.445 842.956 762.552 842.889 762.671 842.85C762.789 842.81 762.915 842.799 763.038 842.817H767.58C767.704 842.799 767.83 842.811 767.948 842.85C768.066 842.89 768.173 842.956 768.261 843.044C768.349 843.133 768.416 843.24 768.455 843.358C768.495 843.477 768.506 843.602 768.489 843.726V853.908C768.482 853.957 768.486 854.008 768.502 854.055C768.518 854.103 768.544 854.146 768.58 854.181C768.615 854.216 768.658 854.243 768.705 854.258C768.752 854.274 768.803 854.279 768.852 854.272H775.757C775.88 854.254 776.006 854.266 776.124 854.305C776.242 854.345 776.349 854.411 776.438 854.499C776.526 854.588 776.592 854.695 776.632 854.813C776.671 854.932 776.682 855.057 776.665 855.181V858.181C776.683 858.304 776.671 858.43 776.632 858.548C776.592 858.667 776.526 858.774 776.438 858.863C776.35 858.951 776.242 859.017 776.124 859.057C776.006 859.096 775.88 859.108 775.757 859.09V859.09Z" fill="white"/>
<path d="M783.652 844.727C782.791 843.787 782.335 842.546 782.38 841.272C782.361 840.662 782.463 840.054 782.682 839.484C782.9 838.914 783.23 838.394 783.652 837.954C784.075 837.518 784.584 837.175 785.148 836.948C785.711 836.721 786.315 836.614 786.922 836.635C787.509 836.618 788.092 836.726 788.632 836.954C789.173 837.181 789.659 837.522 790.056 837.954C790.883 838.857 791.323 840.048 791.283 841.272C791.329 842.538 790.891 843.774 790.056 844.727C789.666 845.17 789.183 845.522 788.641 845.758C788.099 845.993 787.513 846.107 786.922 846.09C786.311 846.11 785.703 845.999 785.139 845.764C784.575 845.529 784.068 845.175 783.652 844.727V844.727ZM783.652 899.364V855.181C783.634 855.058 783.646 854.932 783.685 854.814C783.724 854.695 783.791 854.588 783.879 854.5C783.967 854.411 784.075 854.345 784.193 854.305C784.311 854.266 784.437 854.255 784.56 854.272H789.193C789.317 854.255 789.443 854.266 789.561 854.306C789.679 854.345 789.786 854.412 789.874 854.5C789.963 854.588 790.029 854.696 790.069 854.814C790.108 854.932 790.119 855.058 790.102 855.181V899.364C790.12 899.488 790.108 899.614 790.069 899.732C790.029 899.85 789.963 899.958 789.875 900.046C789.787 900.134 789.679 900.201 789.561 900.24C789.443 900.28 789.317 900.291 789.193 900.273H784.56C784.437 900.291 784.311 900.28 784.193 900.24C784.074 900.201 783.967 900.134 783.879 900.046C783.791 899.958 783.724 899.85 783.685 899.732C783.645 899.614 783.634 899.488 783.652 899.364V899.364Z" fill="white"/>
<path d="M808.289 899.455L797.024 855.273L796.934 854.909C796.934 854.486 797.206 854.272 797.751 854.272H803.02C803.625 854.272 803.958 854.545 804.02 855.091L811.832 890.273C811.892 890.455 811.953 890.546 812.014 890.546C812.074 890.546 812.135 890.455 812.196 890.273L819.918 855.091C819.947 854.852 820.067 854.633 820.253 854.481C820.439 854.328 820.677 854.254 820.917 854.272L826.186 854.363C826.313 854.354 826.44 854.374 826.558 854.421C826.676 854.468 826.782 854.542 826.867 854.636C826.943 854.74 826.987 854.864 826.995 854.993C827.003 855.122 826.975 855.25 826.913 855.363L815.739 899.455C815.678 900 815.345 900.273 814.739 900.274H809.289C809.049 900.292 808.811 900.217 808.625 900.065C808.439 899.913 808.319 899.694 808.289 899.455V899.455Z" fill="white"/>
<path d="M859.608 879.727H838.895C838.846 879.72 838.796 879.725 838.749 879.741C838.701 879.756 838.658 879.783 838.623 879.818C838.588 879.853 838.561 879.896 838.545 879.944C838.53 879.991 838.525 880.041 838.532 880.091V886.727C838.532 889.273 839.244 891.349 840.667 892.955C841.362 893.745 842.224 894.371 843.19 894.788C844.156 895.204 845.203 895.401 846.254 895.364C848.067 895.409 849.832 894.777 851.205 893.591C852.576 892.395 853.517 890.783 853.885 889.001C853.931 888.769 854.056 888.562 854.238 888.412C854.421 888.263 854.649 888.182 854.884 888.182L859.427 888.364C859.546 888.364 859.663 888.388 859.773 888.434C859.882 888.481 859.981 888.55 860.063 888.636C860.153 888.732 860.218 888.849 860.25 888.976C860.281 889.104 860.28 889.237 860.244 889.364C859.759 892.941 858.29 895.774 855.838 897.864C853.385 899.955 850.191 901.001 846.254 901.001C841.953 901.001 838.516 899.728 835.943 897.182C833.368 894.637 832.081 891.273 832.082 887.091V867.455C832.082 863.333 833.369 859.985 835.943 857.409C838.516 854.833 841.953 853.545 846.254 853.545C850.615 853.545 854.082 854.833 856.656 857.409C859.229 859.985 860.516 863.334 860.517 867.455V878.818C860.534 878.942 860.523 879.068 860.484 879.186C860.444 879.304 860.378 879.412 860.29 879.5C860.201 879.588 860.094 879.655 859.976 879.694C859.857 879.733 859.732 879.745 859.608 879.727V879.727ZM840.667 861.591C839.243 863.197 838.532 865.303 838.532 867.909V874C838.525 874.049 838.53 874.1 838.545 874.147C838.561 874.195 838.588 874.238 838.623 874.273C838.658 874.308 838.701 874.335 838.748 874.35C838.796 874.366 838.846 874.371 838.895 874.364H853.794C853.844 874.371 853.894 874.366 853.941 874.35C853.988 874.334 854.031 874.308 854.067 874.273C854.102 874.237 854.128 874.194 854.144 874.147C854.16 874.1 854.165 874.049 854.158 874V867.909C854.158 865.304 853.431 863.197 851.977 861.591C850.524 859.985 848.616 859.182 846.254 859.182C845.203 859.145 844.156 859.341 843.19 859.758C842.224 860.175 841.362 860.8 840.667 861.591H840.667Z" fill="white"/>
</g>
</g>
<defs>
<filter id="filter0_i_1166_4401" x="0" y="0" width="1050" height="1050" filterUnits="userSpaceOnUse" color-interpolation-filters="sRGB">
<feFlood flood-opacity="0" result="BackgroundImageFix"/>
<feBlend mode="normal" in="SourceGraphic" in2="BackgroundImageFix" result="shape"/>
<feColorMatrix in="SourceAlpha" type="matrix" values="0 0 0 0 0 0 0 0 0 0 0 0 0 0 0 0 0 0 127 0" result="hardAlpha"/>
<feOffset dx="50" dy="50"/>
<feGaussianBlur stdDeviation="50"/>
<feComposite in2="hardAlpha" operator="arithmetic" k2="-1" k3="1"/>
<feColorMatrix type="matrix" values="0 0 0 0 0 0 0 0 0 0 0 0 0 0 0 0 0 0 0.25 0"/>
<feBlend mode="normal" in2="shape" result="effect1_innerShadow_1166_4401"/>
</filter>
<clipPath id="clip0_1166_4401">
<rect width="1000" height="1000" fill="white"/>
</clipPath>
<clipPath id="clip1_1166_4401">
<rect width="311" height="364" fill="white" transform="translate(589 537)"/>
</clipPath>
</defs>
</svg>
