<svg width="829" height="970" viewBox="0 0 829 970" fill="none" xmlns="http://www.w3.org/2000/svg">
<g clip-path="url(#clip0_1167_4661)">
<path d="M774.499 772.902H54.4991C40.0498 772.886 26.197 767.136 15.9798 756.915C5.76256 746.693 0.0153801 732.834 -0.000921311 718.379V54.663C-0.114867 43.8539 3.03586 33.2621 9.03886 24.2742C15.0419 15.2863 23.6174 8.3209 33.6431 4.28978C43.5814 0.0480481 54.5683 -1.09303 65.1657 1.0159C75.763 3.12483 85.477 8.38551 93.0362 16.1093L396.468 319.671C401.25 324.455 407.736 327.143 414.499 327.143C421.262 327.143 427.748 324.455 432.53 319.671L432.598 319.604L726.566 29.367L828.999 131.844V718.379C828.983 732.835 823.236 746.693 813.018 756.915C802.801 767.137 788.948 772.886 774.499 772.902V772.902ZM54.794 29.0348C51.3401 29.0521 47.9236 29.7518 44.7408 31.0938C40.0247 32.9435 35.9879 36.1938 33.1736 40.4075C30.3593 44.6212 28.9025 49.5961 28.9991 54.663V718.379C29.0067 725.143 31.6958 731.627 36.4763 736.409C41.2568 741.192 47.7384 743.882 54.4991 743.89H774.499C781.26 743.882 787.741 741.192 792.522 736.409C797.302 731.627 799.991 725.143 799.999 718.379V143.86L726.432 70.2615L452.994 340.228C442.761 350.419 428.908 356.137 414.469 356.13C400.03 356.122 386.183 350.388 375.962 340.186L72.5303 36.624C70.2277 34.2417 67.4728 32.3433 64.4271 31.0401C61.3815 29.7369 58.1064 29.0552 54.794 29.0348V29.0348Z" fill="#880088"/>
<path d="M143.803 396.526C139.076 404.06 136.713 415.804 136.715 431.759V442.839C136.715 444.014 137.182 445.142 138.013 445.973C138.843 446.804 139.97 447.271 141.145 447.271H172.599C173.773 447.271 174.9 447.737 175.731 448.569C176.562 449.4 177.028 450.527 177.028 451.702V466.328C177.028 467.503 176.562 468.63 175.731 469.461C174.9 470.292 173.773 470.759 172.599 470.759H141.145C139.97 470.759 138.843 471.226 138.013 472.057C137.182 472.888 136.715 474.015 136.715 475.191V667.093C136.715 667.675 136.601 668.252 136.378 668.789C136.156 669.327 135.829 669.815 135.418 670.227C135.007 670.638 134.518 670.965 133.981 671.188C133.443 671.41 132.867 671.525 132.286 671.525H110.135C108.96 671.525 107.834 671.058 107.003 670.227C106.172 669.396 105.706 668.269 105.706 667.093V475.191C105.706 474.015 105.239 472.888 104.408 472.057C103.577 471.226 102.451 470.759 101.276 470.759H86.2129C85.038 470.759 83.9113 470.292 83.0806 469.461C82.2499 468.63 81.7832 467.503 81.7832 466.328V451.702C81.7832 450.527 82.2499 449.4 83.0806 448.569C83.9113 447.737 85.038 447.271 86.2129 447.271H101.276C102.451 447.271 103.577 446.804 104.408 445.973C105.239 445.142 105.706 444.014 105.706 442.839V431.316C105.706 405.611 110.431 386.997 119.881 375.474C129.33 363.952 145.13 358.19 167.282 358.189H173.484C176.433 358.189 177.91 359.667 177.915 362.621L177.471 380.793V380.838C177.468 382.003 177.002 383.119 176.177 383.941C175.352 384.764 174.235 385.225 173.07 385.224H167.726C156.498 385.224 148.524 388.992 143.803 396.526Z" fill="#880088"/>
<path d="M339.899 571.363H242.693C241.367 571.363 240.096 571.89 239.158 572.828C238.22 573.766 237.693 575.039 237.693 576.365V605.489C237.693 617.898 241.164 628.017 248.104 635.847C255.04 643.679 264.121 647.595 275.348 647.592C284.797 647.592 292.845 644.711 299.492 638.95C306.177 633.12 310.768 625.258 312.561 616.569C313.446 613.91 315.07 612.58 317.433 612.58L339.583 613.466C340.164 613.465 340.738 613.582 341.271 613.811C341.804 614.039 342.285 614.375 342.684 614.796C343.126 615.259 343.441 615.83 343.596 616.451C343.751 617.073 343.743 617.724 343.57 618.341C341.203 635.779 334.041 649.591 322.085 659.78C310.124 669.973 294.545 675.069 275.348 675.07C254.375 675.07 237.615 668.865 225.068 656.455C212.512 644.047 206.236 627.649 206.24 607.262V511.533C206.24 491.443 212.516 475.119 225.068 462.56C237.617 450.006 254.377 443.727 275.348 443.725C296.612 443.725 313.52 450.003 326.072 462.56C338.621 475.122 344.897 491.446 344.899 511.533V566.361C344.899 567.688 344.373 568.96 343.435 569.898C342.497 570.836 341.225 571.363 339.899 571.363V571.363ZM248.104 482.947C241.161 490.779 237.691 501.046 237.693 513.749V540.213C237.693 541.54 238.22 542.812 239.158 543.75C240.096 544.688 241.367 545.215 242.693 545.215H308.889C310.215 545.215 311.487 544.688 312.425 543.75C313.362 542.812 313.889 541.54 313.889 540.213V513.749C313.889 501.049 310.345 490.782 303.257 482.947C296.169 475.122 286.866 471.207 275.348 471.202C264.121 471.202 255.04 475.117 248.104 482.947Z" fill="#880088"/>
<path d="M483.473 449.93C485.535 451.114 486.273 453.034 485.688 455.691L480.815 478.294C480.526 480.857 478.732 481.773 475.432 481.042C475.183 480.984 474.94 480.907 474.704 480.81C471.002 479.384 467.061 478.68 463.094 478.737C460.945 478.693 458.797 478.828 456.67 479.139C456.52 479.166 456.368 479.185 456.215 479.195C445.689 479.858 437.054 485.393 430.313 495.8C423.515 506.291 420.118 519.07 420.123 534.136V666.523C420.123 667.849 419.596 669.122 418.659 670.06C417.721 670.998 416.449 671.525 415.123 671.525H393.67C392.344 671.525 391.072 670.998 390.134 670.06C389.197 669.122 388.67 667.849 388.67 666.523V452.273C388.67 450.946 389.197 449.674 390.134 448.736C391.072 447.798 392.344 447.271 393.67 447.271H415.123C416.449 447.271 417.721 447.798 418.659 448.736C419.596 449.674 420.123 450.946 420.123 452.273V478.294C420.123 479.181 420.344 479.624 420.787 479.624C421.398 479.537 421.953 479.22 422.338 478.737C430.9 456.287 444.929 445.06 464.423 445.055C471.802 445.055 478.152 446.68 483.473 449.93Z" fill="#880088"/>
<path d="M629.624 463.89C641.876 477.338 648.004 495.287 648.009 517.738V666.522C648.009 667.849 647.482 669.121 646.544 670.059C645.607 670.997 644.335 671.524 643.009 671.524H621.556C620.23 671.524 618.958 670.997 618.02 670.059C617.082 669.121 616.556 667.849 616.556 666.522V654.24C616.588 654.007 616.54 653.77 616.419 653.568C616.298 653.367 616.112 653.213 615.892 653.132C615.448 652.987 614.93 653.208 614.341 653.796C603.411 667.979 587.168 675.07 565.611 675.07C549.365 675.07 535.263 670.416 523.305 661.11C511.344 651.803 505.363 635.331 505.363 611.694C505.363 586.584 512.599 568.191 527.07 556.516C541.537 544.848 560.586 539.013 584.217 539.011H611.556C612.882 539.011 614.153 538.484 615.091 537.545C616.029 536.607 616.556 535.335 616.556 534.008V519.954C616.556 505.183 613.233 493.364 606.589 484.499C599.943 475.634 590.862 471.202 579.344 471.202C570.81 471.077 562.558 474.253 556.308 480.066C549.85 485.897 545.884 493.991 545.233 502.669C544.936 505.626 543.311 507.103 540.36 507.1L515.995 506.658C515.377 506.705 514.756 506.609 514.18 506.379C513.604 506.148 513.088 505.789 512.673 505.328C512.311 504.908 512.061 504.404 511.945 503.862C511.829 503.319 511.85 502.757 512.008 502.225C513.482 484.796 520.57 470.688 533.272 459.9C545.967 449.119 561.62 443.727 580.23 443.725C600.898 443.725 617.363 450.447 629.624 463.89ZM603.487 635.847C612.195 628.022 616.551 617.164 616.556 603.272V569.274C616.556 567.948 616.029 566.675 615.091 565.737C614.154 564.799 612.882 564.272 611.556 564.272H583.774C569.598 564.272 558.375 568.039 550.105 575.573C541.834 583.108 537.7 594.261 537.702 609.035C537.702 622.039 540.877 631.716 547.227 638.064C553.574 644.421 561.917 647.597 572.256 647.592C583.784 647.811 594.958 643.609 603.487 635.847V635.847Z" fill="#880088"/>
<path d="M695.84 361.293V666.523C695.84 667.85 696.367 669.122 697.304 670.06C698.242 670.998 699.514 671.525 700.84 671.525H722.293C723.619 671.525 724.891 670.998 725.829 670.06C726.766 669.122 727.293 667.85 727.293 666.523V392.76L695.84 361.293Z" fill="#880088"/>
<path d="M113.032 959.825C106.168 953.041 102.738 944.077 102.74 932.932V880.605C102.74 869.623 106.211 860.699 113.153 853.835C120.092 846.971 129.214 843.538 140.517 843.538C147.493 843.397 154.396 844.978 160.616 848.142C166.12 850.928 170.764 855.156 174.056 860.375C177.194 865.426 178.831 871.266 178.778 877.213V879.634C178.825 879.964 178.795 880.299 178.69 880.614C178.585 880.93 178.408 881.216 178.173 881.451C177.938 881.687 177.651 881.864 177.336 881.969C177.021 882.074 176.686 882.105 176.357 882.058L164.006 882.543C163.387 882.553 162.784 882.338 162.311 881.937C162.077 881.748 161.889 881.508 161.763 881.235C161.637 880.962 161.576 880.663 161.585 880.362V878.425C161.598 875.82 161.079 873.241 160.059 870.845C159.038 868.449 157.539 866.287 155.652 864.493C153.667 862.524 151.3 860.982 148.697 859.962C146.095 858.941 143.311 858.464 140.517 858.559C137.714 858.46 134.925 858.985 132.35 860.095C129.774 861.205 127.477 862.873 125.624 864.978C121.829 869.259 119.932 874.872 119.933 881.815V931.722C119.933 938.668 121.83 944.28 125.624 948.559C127.477 950.665 129.774 952.333 132.349 953.443C134.925 954.554 137.714 955.078 140.517 954.979C143.311 955.074 146.095 954.597 148.698 953.576C151.301 952.556 153.667 951.013 155.652 949.043C157.539 947.249 159.039 945.088 160.059 942.692C161.08 940.296 161.599 937.717 161.585 935.113V933.418C161.538 933.089 161.568 932.753 161.673 932.438C161.778 932.122 161.955 931.836 162.19 931.601C162.425 931.366 162.712 931.189 163.027 931.083C163.342 930.978 163.677 930.948 164.006 930.995L176.357 931.237C176.686 931.191 177.021 931.221 177.336 931.327C177.651 931.432 177.937 931.609 178.172 931.844C178.407 932.079 178.584 932.366 178.689 932.681C178.794 932.996 178.825 933.331 178.778 933.66V936.325C178.885 940.868 177.998 945.38 176.178 949.544C174.358 953.708 171.651 957.424 168.244 960.431C161.222 966.812 151.979 970.002 140.517 970C129.052 970 119.89 966.608 113.032 959.825Z" fill="#880088"/>
<path d="M249.899 846.931C250.44 847.228 250.859 847.707 251.08 848.284C251.302 848.86 251.312 849.497 251.109 850.08L248.446 862.435C248.283 863.89 247.234 864.374 245.297 863.89C243.22 863.055 240.998 862.643 238.76 862.678C237.544 862.65 236.328 862.731 235.127 862.919C229.315 863.245 224.553 866.273 220.839 872.004C217.124 877.74 215.267 884.725 215.27 892.961V965.639C215.317 965.968 215.287 966.304 215.182 966.619C215.076 966.935 214.899 967.221 214.664 967.456C214.43 967.691 214.143 967.868 213.828 967.974C213.513 968.079 213.177 968.109 212.848 968.062H200.498C200.169 968.11 199.834 968.079 199.518 967.974C199.203 967.869 198.916 967.692 198.681 967.457C198.446 967.222 198.269 966.935 198.164 966.62C198.059 966.304 198.029 965.968 198.076 965.639V847.9C198.03 847.571 198.06 847.235 198.165 846.92C198.27 846.604 198.447 846.318 198.682 846.083C198.917 845.848 199.203 845.671 199.519 845.565C199.834 845.46 200.169 845.43 200.498 845.477H212.848C213.177 845.43 213.512 845.461 213.827 845.566C214.143 845.671 214.429 845.849 214.664 846.084C214.898 846.319 215.076 846.605 215.181 846.92C215.286 847.235 215.317 847.571 215.27 847.9V862.435C215.27 862.919 215.391 863.161 215.633 863.162C215.967 863.115 216.27 862.942 216.481 862.678C221.161 850.406 228.829 844.268 239.486 844.265C243.137 844.166 246.744 845.089 249.899 846.931Z" fill="#880088"/>
<path d="M337.222 913.311H282.009C281.878 913.292 281.744 913.304 281.618 913.346C281.492 913.388 281.377 913.459 281.283 913.553C281.189 913.647 281.119 913.762 281.076 913.888C281.034 914.014 281.022 914.148 281.041 914.28V931.965C281.041 938.749 282.938 944.281 286.732 948.56C288.584 950.666 290.881 952.334 293.457 953.445C296.032 954.555 298.822 955.079 301.624 954.98C306.457 955.099 311.162 953.415 314.822 950.256C318.476 947.069 320.986 942.772 321.966 938.022C322.089 937.407 322.422 936.853 322.907 936.455C323.393 936.057 324.002 935.841 324.63 935.842L336.737 936.326C337.054 936.325 337.368 936.389 337.66 936.514C337.951 936.639 338.214 936.822 338.433 937.052C338.674 937.306 338.846 937.618 338.931 937.958C339.016 938.298 339.011 938.654 338.917 938.991C337.623 948.523 333.708 956.073 327.172 961.642C320.634 967.214 312.118 970.001 301.624 970.001C290.159 970.001 280.998 966.609 274.139 959.826C267.276 953.042 263.845 944.078 263.848 932.934V880.606C263.848 869.624 267.278 860.7 274.139 853.836C280.999 846.972 290.161 843.54 301.624 843.539C313.248 843.539 322.49 846.971 329.352 853.836C336.212 860.701 339.642 869.625 339.643 880.606V910.889C339.69 911.218 339.66 911.553 339.555 911.869C339.449 912.184 339.272 912.47 339.037 912.705C338.802 912.94 338.516 913.117 338.201 913.222C337.886 913.327 337.55 913.357 337.222 913.311V913.311ZM286.732 864.979C282.937 869.261 281.04 874.873 281.041 881.816V898.049C281.022 898.18 281.034 898.314 281.076 898.441C281.118 898.567 281.189 898.682 281.283 898.776C281.377 898.87 281.491 898.941 281.618 898.982C281.744 899.024 281.878 899.036 282.009 899.017H321.724C321.855 899.036 321.989 899.024 322.115 898.982C322.241 898.94 322.356 898.869 322.45 898.775C322.544 898.681 322.614 898.566 322.657 898.44C322.699 898.314 322.711 898.18 322.692 898.049V881.816C322.692 874.874 320.755 869.262 316.88 864.979C313.006 860.701 307.921 858.561 301.624 858.56C298.822 858.461 296.033 858.986 293.457 860.096C290.882 861.206 288.585 862.874 286.732 864.979H286.732Z" fill="#880088"/>
<path d="M424.736 854.562C431.433 861.913 434.783 871.724 434.786 883.997V965.64C434.833 965.969 434.802 966.304 434.697 966.62C434.592 966.935 434.415 967.222 434.18 967.457C433.945 967.692 433.659 967.869 433.344 967.974C433.028 968.079 432.693 968.11 432.364 968.063H420.014C419.685 968.11 419.35 968.08 419.034 967.975C418.719 967.87 418.432 967.693 418.197 967.457C417.962 967.222 417.785 966.935 417.68 966.62C417.575 966.304 417.545 965.969 417.593 965.64V958.614C417.61 958.487 417.584 958.357 417.518 958.247C417.452 958.137 417.35 958.053 417.229 958.009C416.987 957.929 416.703 958.051 416.382 958.372C410.407 966.125 401.528 970.001 389.744 970.001C381.39 970.175 373.229 967.482 366.618 962.37C360.08 957.282 356.81 948.278 356.811 935.357C356.811 921.632 360.766 911.578 368.676 905.194C376.584 898.817 386.997 895.627 399.915 895.625H416.624C416.756 895.644 416.89 895.632 417.016 895.59C417.142 895.548 417.256 895.477 417.35 895.383C417.444 895.289 417.515 895.175 417.557 895.048C417.599 894.922 417.611 894.788 417.592 894.657V885.208C417.592 877.134 415.776 870.674 412.144 865.828C410.448 863.487 408.203 861.599 405.605 860.332C403.008 859.064 400.139 858.456 397.251 858.56C392.586 858.491 388.075 860.227 384.659 863.405C381.128 866.591 378.96 871.016 378.605 875.76C378.61 876.101 378.543 876.439 378.408 876.751C378.273 877.064 378.072 877.345 377.82 877.574C377.568 877.803 377.27 877.976 376.946 878.081C376.622 878.186 376.279 878.221 375.941 878.183L362.622 877.94C362.284 877.966 361.945 877.913 361.63 877.788C361.315 877.662 361.033 877.466 360.806 877.214C360.608 876.984 360.472 876.708 360.408 876.412C360.345 876.115 360.357 875.808 360.443 875.517C361.249 865.99 365.123 858.279 372.066 852.382C379.006 846.488 387.562 843.541 397.735 843.539C409.034 843.539 418.034 847.213 424.736 854.562ZM410.449 948.56C415.209 944.282 417.59 938.346 417.593 930.753V910.404C417.611 910.272 417.598 910.138 417.556 910.012C417.514 909.886 417.443 909.772 417.349 909.678C417.256 909.584 417.141 909.513 417.015 909.471C416.889 909.429 416.755 909.416 416.624 909.435H399.673C391.924 909.435 385.789 911.494 381.269 915.612C376.747 919.732 374.487 925.828 374.488 933.902C374.488 941.012 376.224 946.302 379.694 949.772C383.164 953.247 387.725 954.983 393.377 954.98C399.678 955.1 405.786 952.803 410.449 948.56V948.56Z" fill="#880088"/>
<path d="M497.819 858.317H479.415C479.283 858.298 479.149 858.31 479.023 858.353C478.897 858.395 478.782 858.465 478.688 858.559C478.594 858.653 478.524 858.768 478.482 858.894C478.44 859.02 478.427 859.154 478.446 859.286V933.418C478.446 940.849 479.738 945.977 482.321 948.802C484.901 951.629 488.856 952.962 494.186 952.799H496.608C496.937 952.752 497.272 952.783 497.587 952.888C497.902 952.994 498.188 953.171 498.423 953.406C498.658 953.641 498.835 953.927 498.94 954.242C499.046 954.557 499.076 954.893 499.03 955.222V965.639C499.077 965.968 499.046 966.304 498.941 966.619C498.836 966.935 498.659 967.221 498.424 967.456C498.189 967.691 497.903 967.869 497.587 967.974C497.272 968.079 496.937 968.109 496.608 968.062H490.554C481.026 968.062 473.802 966.003 468.881 961.884C463.954 957.766 461.492 949.973 461.495 938.506V859.286C461.513 859.154 461.501 859.02 461.459 858.894C461.416 858.768 461.346 858.654 461.252 858.56C461.158 858.466 461.043 858.395 460.917 858.353C460.792 858.311 460.658 858.298 460.526 858.317H451.082C450.753 858.364 450.418 858.334 450.102 858.229C449.787 858.124 449.5 857.947 449.265 857.712C449.03 857.476 448.853 857.19 448.748 856.874C448.643 856.559 448.613 856.223 448.66 855.894V847.9C448.614 847.571 448.644 847.235 448.749 846.92C448.854 846.604 449.031 846.318 449.266 846.083C449.501 845.848 449.787 845.67 450.103 845.565C450.418 845.46 450.753 845.43 451.082 845.477H460.526C460.658 845.495 460.792 845.483 460.918 845.441C461.044 845.399 461.159 845.328 461.253 845.234C461.347 845.14 461.417 845.026 461.459 844.9C461.502 844.773 461.514 844.639 461.495 844.508V817.374C461.448 817.045 461.478 816.71 461.583 816.394C461.688 816.079 461.865 815.792 462.1 815.557C462.335 815.322 462.622 815.145 462.937 815.04C463.252 814.935 463.587 814.904 463.916 814.951H476.024C476.353 814.905 476.688 814.935 477.003 815.04C477.319 815.146 477.605 815.323 477.84 815.558C478.074 815.793 478.251 816.079 478.357 816.395C478.462 816.71 478.493 817.045 478.446 817.374V844.508C478.427 844.639 478.439 844.774 478.481 844.9C478.523 845.026 478.594 845.141 478.688 845.235C478.782 845.329 478.896 845.4 479.022 845.442C479.149 845.484 479.283 845.496 479.415 845.477H497.819C498.148 845.43 498.483 845.461 498.798 845.566C499.113 845.671 499.399 845.849 499.634 846.084C499.869 846.319 500.046 846.605 500.151 846.92C500.256 847.235 500.287 847.571 500.24 847.9V855.894C500.287 856.223 500.257 856.558 500.152 856.874C500.047 857.189 499.87 857.476 499.635 857.711C499.4 857.946 499.114 858.123 498.798 858.228C498.483 858.333 498.148 858.364 497.819 858.317V858.317Z" fill="#880088"/>
<path d="M518.863 820.04C516.57 817.535 515.352 814.228 515.473 810.833C515.421 809.207 515.694 807.588 516.277 806.069C516.859 804.551 517.738 803.164 518.863 801.99C519.991 800.828 521.349 799.915 522.85 799.31C524.352 798.705 525.963 798.422 527.581 798.478C529.144 798.431 530.698 798.72 532.139 799.326C533.581 799.932 534.875 800.841 535.935 801.99C538.139 804.397 539.313 807.571 539.205 810.833C539.328 814.207 538.159 817.5 535.935 820.04C534.894 821.221 533.606 822.159 532.162 822.787C530.718 823.414 529.154 823.717 527.581 823.673C525.953 823.727 524.332 823.43 522.828 822.803C521.324 822.176 519.972 821.234 518.863 820.04V820.04ZM518.863 965.639V847.9C518.816 847.571 518.847 847.235 518.952 846.92C519.057 846.605 519.234 846.318 519.469 846.083C519.704 845.848 519.99 845.671 520.305 845.565C520.62 845.46 520.956 845.43 521.285 845.477H533.635C533.964 845.43 534.299 845.461 534.614 845.566C534.929 845.671 535.215 845.849 535.45 846.084C535.685 846.319 535.862 846.605 535.967 846.92C536.073 847.235 536.103 847.571 536.057 847.9V965.639C536.104 965.968 536.073 966.304 535.968 966.619C535.863 966.935 535.686 967.221 535.451 967.456C535.216 967.691 534.93 967.869 534.614 967.974C534.299 968.079 533.964 968.109 533.635 968.062H521.285C520.956 968.11 520.62 968.079 520.305 967.974C519.989 967.869 519.703 967.692 519.468 967.457C519.233 967.222 519.056 966.935 518.951 966.62C518.846 966.304 518.816 965.968 518.863 965.639V965.639Z" fill="#880088"/>
<path d="M584.536 965.881L554.508 848.142L554.266 847.173C554.266 846.044 554.992 845.476 556.445 845.476H570.49C572.102 845.476 572.99 846.203 573.154 847.657L593.98 941.412C594.139 941.897 594.301 942.14 594.464 942.14C594.623 942.14 594.786 941.897 594.948 941.412L615.532 847.657C615.61 847.02 615.93 846.438 616.426 846.032C616.923 845.626 617.556 845.427 618.196 845.476L632.241 845.719C632.579 845.694 632.918 845.747 633.233 845.873C633.547 845.998 633.829 846.194 634.057 846.445C634.258 846.724 634.377 847.054 634.398 847.397C634.419 847.74 634.343 848.082 634.178 848.383L604.393 965.881C604.23 967.334 603.342 968.061 601.729 968.062H587.199C586.56 968.111 585.927 967.912 585.43 967.506C584.934 967.1 584.614 966.518 584.536 965.881V965.881Z" fill="#880088"/>
<path d="M721.331 913.311H666.119C665.987 913.292 665.853 913.304 665.727 913.346C665.601 913.388 665.487 913.459 665.393 913.553C665.299 913.647 665.228 913.762 665.186 913.888C665.144 914.014 665.132 914.148 665.15 914.28V931.965C665.15 938.749 667.047 944.281 670.841 948.56C672.694 950.666 674.991 952.334 677.566 953.445C680.142 954.555 682.931 955.079 685.734 954.98C690.567 955.099 695.271 953.415 698.931 950.256C702.586 947.069 705.095 942.772 706.075 938.022C706.198 937.407 706.531 936.853 707.017 936.455C707.503 936.057 708.111 935.841 708.739 935.842L720.847 936.326C721.164 936.325 721.478 936.389 721.769 936.514C722.061 936.639 722.324 936.822 722.542 937.052C722.784 937.306 722.955 937.618 723.04 937.958C723.125 938.298 723.12 938.654 723.026 938.991C721.732 948.523 717.817 956.073 711.282 961.642C704.743 967.214 696.227 970.001 685.734 970.001C674.269 970.001 665.107 966.609 658.249 959.826C651.385 953.042 647.954 944.078 647.957 932.934V880.606C647.957 869.624 651.388 860.7 658.249 853.836C665.109 846.972 674.27 843.54 685.734 843.539C697.357 843.539 706.6 846.971 713.461 853.836C720.321 860.701 723.752 869.625 723.753 880.606V910.889C723.799 911.218 723.769 911.553 723.664 911.869C723.559 912.184 723.382 912.47 723.147 912.705C722.912 912.94 722.625 913.117 722.31 913.222C721.995 913.327 721.66 913.357 721.331 913.311V913.311ZM670.841 864.979C667.046 869.261 665.149 874.873 665.15 881.816V898.049C665.131 898.18 665.143 898.314 665.185 898.441C665.227 898.567 665.298 898.682 665.392 898.776C665.486 898.87 665.601 898.941 665.727 898.982C665.853 899.024 665.987 899.036 666.119 899.017H705.833C705.965 899.036 706.099 899.024 706.225 898.982C706.351 898.94 706.465 898.869 706.559 898.775C706.653 898.681 706.724 898.566 706.766 898.44C706.808 898.314 706.82 898.18 706.802 898.049V881.816C706.802 874.874 704.864 869.262 700.99 864.979C697.115 860.701 692.03 858.561 685.734 858.56C682.931 858.461 680.142 858.986 677.567 860.096C674.991 861.206 672.694 862.874 670.841 864.979H670.841Z" fill="#880088"/>
</g>
<defs>
<clipPath id="clip0_1167_4661">
<rect width="829" height="970" fill="white"/>
</clipPath>
</defs>
</svg>
